<?xml version="1.0" encoding="utf-8"?>
<!-- Generator: Adobe Illustrator 27.3.1, SVG Export Plug-In . SVG Version: 6.00 Build 0)  -->
<svg version="1.1" id="Camada_2_00000130604805930921487180000007872576562451270022_"
	 xmlns="http://www.w3.org/2000/svg" xmlns:xlink="http://www.w3.org/1999/xlink" x="0px" y="0px" viewBox="0 0 3661 724.3"
	 style="enable-background:new 0 0 3661 724.3;" xml:space="preserve">
<style type="text/css">
	.st0{fill:#111517;}
	.st1{fill:#FFFFFF;}
	.st2{fill:#FF0000;}
</style>
<image style="overflow:visible;" width="804" height="753" xlink:href="FA56DD84.jpg"  transform="matrix(0.3401 0 0 0.3401 -2.021547e-04 420.2901)">
</image>
<g>
	<path class="st0" d="M136.6,138.1v-22h-7.9V113h22v3.1h-7.8v22H136.6z"/>
	<path class="st0" d="M158.6,138.1V135h-3.1v-9.4h3.1v-3.1h15.7v3.1h3.1v9.4h-3.1v3.1H158.6z M171.2,135v-9.4h-9.4v9.4H171.2z"/>
	<path class="st0" d="M182.2,138.1v-15.7h6.3v3.1h3.1v3.1h-3.1v9.4H182.2z M191.6,125.6v-3.1h9.4v3.1H191.6z"/>
	<path class="st0" d="M205.7,138.1v-15.7h18.8v3.1h3.1v12.6h-6.3v-12.6H212v12.6H205.7z"/>
	<path class="st0" d="M235.5,138.1V135h-3.1v-3.1h3.1v-3.1h12.6v-3.1h-12.6v-3.1h15.7v3.1h3.1v12.6H235.5z M248.1,135v-3.1h-9.4v3.1
		H248.1z"/>
	<path class="st0" d="M259.1,138.1v-15.7h6.3v3.1h3.1v3.1h-3.1v9.4H259.1z M268.5,125.6v-3.1h9.4v3.1H268.5z"/>
	<path class="st0" d="M298.3,138.1V135h-3.1v-9.4h3.1v-3.1h15.7v3.1h3.1v9.4h-3.1v3.1H298.3z M310.9,135v-9.4h-9.4v9.4H310.9z"/>
	<path class="st0" d="M340.8,138.1V135h-3.1v-3.1h-3.1v-9.4h6.3v9.4h3.1v3.1h3.1v-3.1h3.1v-9.4h6.3v9.4h-3.1v3.1h-3.1v3.1H340.8z"/>
	<path class="st0" d="M361.2,119.3V113h6.3v6.3H361.2z M361.2,138.1v-15.7h6.3v15.7H361.2z"/>
	<path class="st0" d="M372.2,138.1v-15.7h6.3v3.1h3.1v3.1h-3.1v9.4H372.2z M381.6,125.6v-3.1h9.4v3.1H381.6z"/>
	<path class="st0" d="M398.8,138.1V135h-3.1v-3.1h3.1v-3.1h12.6v-3.1h-12.6v-3.1h15.7v3.1h3.1v12.6H398.8z M411.4,135v-3.1H402v3.1
		H411.4z"/>
	<path class="st0" d="M425.5,138.1V135h-3.1v-22h6.3v22h3.1v3.1H425.5z"/>
	<path class="st0" d="M439.7,138.1V135h-3.1v-3.1h3.1v-3.1h12.6v-3.1h-12.6v-3.1h15.7v3.1h3.1v12.6H439.7z M452.2,135v-3.1h-9.4v3.1
		H452.2z"/>
	<path class="st0" d="M469.5,138.1V135h-3.1v-9.4h-3.1v-3.1h3.1V113h6.3v9.4h6.3v3.1h-6.3v9.4h6.3v3.1H469.5z"/>
	<path class="st0" d="M486.8,138.1V135h-3.1v-3.1h3.1v-3.1h12.6v-3.1h-12.6v-3.1h15.7v3.1h3.1v12.6H486.8z M499.4,135v-3.1h-9.4v3.1
		H499.4z"/>
	<path class="st0" d="M76.9,179.6v-3.1h-3.1V167h3.1v-3.1h15.7v3.1h3.1v3.1h-6.3V167h-9.4v9.4h9.4v-3.1h6.3v3.1h-3.1v3.1H76.9z"/>
	<path class="st0" d="M103.6,179.6v-3.1h-3.1v-3.1h3.1v-3.1h12.6V167h-12.6v-3.1h15.7v3.1h3.1v12.6H103.6z M116.2,176.5v-3.1h-9.4
		v3.1H116.2z"/>
	<path class="st0" d="M127.2,179.6v-15.7h6.3v3.1h3.1v3.1h-3.1v9.4H127.2z M136.6,167v-3.1h9.4v3.1H136.6z"/>
	<path class="st0" d="M153.9,179.6v-3.1h-3.1v-3.1h3.1v-3.1h12.6V167h-12.6v-3.1h15.7v3.1h3.1v12.6H153.9z M166.4,176.5v-3.1H157
		v3.1H166.4z"/>
	<path class="st0" d="M177.4,179.6v-15.7h18.8v3.1h3.1v12.6h-6.3V167H190v12.6h-3.1V167h-3.1v12.6H177.4z"/>
	<path class="st0" d="M207.3,179.6v-3.1h-3.1V167h3.1v-3.1H223v3.1h3.1v6.3h-15.7v3.1H223v3.1H207.3z M219.8,170.2V167h-9.4v3.1
		H219.8z"/>
	<path class="st0" d="M234,179.6v-3.1h-3.1v-22h6.3v22h3.1v3.1H234z"/>
	<path class="st0" d="M248.1,179.6v-3.1H245V167h3.1v-3.1h15.7v3.1h3.1v9.4h-3.1v3.1H248.1z M260.7,176.5V167h-9.4v9.4H260.7z"/>
	<path class="st0" d="M287.4,179.6v-3.1h-3.1V167h3.1v-3.1h15.7v3.1h3.1v9.4h-3.1v3.1H287.4z M299.9,176.5V167h-9.4v9.4H299.9z"/>
	<path class="st0" d="M323.5,189v-25.1h18.8v3.1h3.1v9.4h-3.1v3.1h-12.6v9.4H323.5z M339.2,176.5V167h-9.4v9.4H339.2z"/>
	<path class="st0" d="M350.2,179.6v-15.7h6.3v3.1h3.1v3.1h-3.1v9.4H350.2z M359.6,167v-3.1h9.4v3.1H359.6z"/>
	<path class="st0" d="M376.9,179.6v-3.1h-3.1V167h3.1v-3.1h15.7v3.1h3.1v6.3H380v3.1h12.6v3.1H376.9z M389.4,170.2V167H380v3.1
		H389.4z"/>
	<path class="st0" d="M400.4,179.6v-3.1h15.7v-3.1h-12.6v-3.1h-3.1V167h3.1v-3.1h15.7v3.1h-12.6v3.1h12.6v3.1h3.1v3.1h-3.1v3.1
		H400.4z"/>
	<path class="st0" d="M427.1,160.8v-6.3h6.3v6.3H427.1z M427.1,179.6v-15.7h6.3v15.7H427.1z"/>
	<path class="st0" d="M441.2,179.6v-3.1h-3.1V167h3.1v-3.1h12.6v-9.4h6.3v25.1H441.2z M453.8,176.5V167h-9.4v9.4H453.8z"/>
	<path class="st0" d="M467.9,179.6v-3.1h-3.1V167h3.1v-3.1h15.7v3.1h3.1v6.3h-15.7v3.1h12.6v3.1H467.9z M480.5,170.2V167h-9.4v3.1
		H480.5z"/>
	<path class="st0" d="M491.5,179.6v-15.7h18.8v3.1h3.1v12.6h-6.3V167h-9.4v12.6H491.5z"/>
	<path class="st0" d="M524.5,179.6v-3.1h-3.1V167h-3.1v-3.1h3.1v-9.4h6.3v9.4h6.3v3.1h-6.3v9.4h6.3v3.1H524.5z"/>
	<path class="st0" d="M541.8,179.6v-3.1h-3.1V167h3.1v-3.1h15.7v3.1h3.1v6.3h-15.7v3.1h12.6v3.1H541.8z M554.3,170.2V167h-9.4v3.1
		H554.3z"/>
	<path class="st0" d="M225.3,221.1v-3.1h-3.1v-9.4h3.1v-3.1h12.6V196h6.3v25.1H225.3z M237.9,217.9v-9.4h-9.4v9.4H237.9z"/>
	<path class="st0" d="M252,221.1v-3.1h-3.1v-9.4h3.1v-3.1h15.7v3.1h3.1v9.4h-3.1v3.1H252z M264.6,217.9v-9.4h-9.4v9.4H264.6z"/>
	<path class="st0" d="M288.1,221.1V196H307v3.1h3.1v6.3H307v3.1h3.1v9.4H307v3.1H288.1z M303.9,205.4v-6.3h-9.4v6.3H303.9z
		 M303.9,217.9v-9.4h-9.4v9.4H303.9z"/>
	<path class="st0" d="M314.8,221.1v-15.7h6.3v3.1h3.1v3.1h-3.1v9.4H314.8z M324.3,208.5v-3.1h9.4v3.1H324.3z"/>
	<path class="st0" d="M341.5,221.1v-3.1h-3.1v-3.1h3.1v-3.1h12.6v-3.1h-12.6v-3.1h15.7v3.1h3.1v12.6H341.5z M354.1,217.9v-3.1h-9.4
		v3.1H354.1z"/>
	<path class="st0" d="M365.1,221.1v-3.1h15.7v-3.1h-12.6v-3.1h-3.1v-3.1h3.1v-3.1h15.7v3.1h-12.6v3.1h12.6v3.1h3.1v3.1h-3.1v3.1
		H365.1z"/>
	<path class="st0" d="M391.8,202.2V196h6.3v6.3H391.8z M391.8,221.1v-15.7h6.3v15.7H391.8z"/>
	<path class="st0" d="M405.9,221.1v-3.1h-3.1v-22h6.3v22h3.1v3.1H405.9z"/>
</g>
<g>
	<path class="st0" d="M599,506.9v-25.1h3.1v3.1h3.1v3.1h3.1v3.1h3.1V488h3.1v-3.1h3.1v-3.1h3.1v25.1h-6.3v-12.6h-3.1v3.1h-3.1v-3.1
		h-3.1v12.6H599z"/>
	<path class="st0" d="M625.7,488v-6.3h6.3v6.3H625.7z M625.7,506.9v-15.7h6.3v15.7H625.7z"/>
	<path class="st0" d="M639.9,510v-3.1h-3.1v-3.1h6.3v3.1h3.1v-15.7h6.3v15.7h-3.1v3.1H639.9z M646.2,488v-6.3h6.3v6.3H646.2z"/>
	<path class="st0" d="M660.3,506.9v-3.1h-3.1v-3.1h3.1v-3.1h12.6v-3.1h-12.6v-3.1H676v3.1h3.1v12.6H660.3z M672.9,503.7v-3.1h-9.4
		v3.1H672.9z"/>
	<path class="st0" d="M683.8,506.9v-15.7h6.3v3.1h3.1v3.1h-3.1v9.4H683.8z M693.3,494.3v-3.1h9.4v3.1H693.3z"/>
	<path class="st0" d="M720,506.9v-15.7h18.8v3.1h3.1v12.6h-6.3v-12.6h-9.4v12.6H720z"/>
	<path class="st0" d="M749.8,506.9v-3.1h-3.1v-3.1h3.1v-3.1h12.6v-3.1h-12.6v-3.1h15.7v3.1h3.1v12.6H749.8z M762.4,503.7v-3.1h-9.4
		v3.1H762.4z"/>
	<path class="st0" d="M789,506.9v-3.1h-3.1v-9.4h3.1v-3.1h12.6v-9.4h6.3v25.1H789z M801.6,503.7v-9.4h-9.4v9.4H801.6z"/>
	<path class="st0" d="M815.7,506.9v-3.1h-3.1v-9.4h3.1v-3.1h15.7v3.1h3.1v9.4h-3.1v3.1H815.7z M828.3,503.7v-9.4h-9.4v9.4H828.3z"/>
	<path class="st0" d="M842.4,516.3v-3.1H855v-6.3h-12.6v-3.1h-3.1v-9.4h3.1v-3.1h18.8v22h-3.1v3.1H842.4z M855,503.7v-9.4h-9.4v9.4
		H855z"/>
	<path class="st0" d="M869.1,506.9v-3.1H866v-9.4h3.1v-3.1h15.7v3.1h3.1v6.3h-15.7v3.1h12.6v3.1H869.1z M881.7,497.4v-3.1h-9.4v3.1
		H881.7z"/>
	<path class="st0" d="M908.4,506.9v-3.1h-3.1v-9.4h3.1v-3.1h15.7v3.1h3.1v3.1H921v-3.1h-9.4v9.4h9.4v-3.1h6.3v3.1h-3.1v3.1H908.4z"
		/>
	<path class="st0" d="M935.1,506.9v-3.1H932v-9.4h3.1v-3.1h15.7v3.1h3.1v9.4h-3.1v3.1H935.1z M947.7,503.7v-9.4h-9.4v9.4H947.7z"/>
	<path class="st0" d="M958.7,488v-6.3h6.3v6.3H958.7z M958.7,506.9v-15.7h6.3v15.7H958.7z"/>
	<path class="st0" d="M969.6,506.9v-15.7h18.8v3.1h3.1v12.6h-6.3v-12.6h-9.4v12.6H969.6z"/>
	<path class="st0" d="M650.9,548.3v-3.1h-3.1v-9.4h3.1v-3.1h15.7v3.1h3.1v6.3H654v3.1h12.6v3.1H650.9z M663.4,538.9v-3.1H654v3.1
		H663.4z"/>
	<path class="st0" d="M687,548.3v-15.7h18.8v3.1h3.1v12.6h-6.3v-12.6h-9.4v12.6H687z"/>
	<path class="st0" d="M716.8,548.3v-3.1h-3.1V542h3.1v-3.1h12.6v-3.1h-12.6v-3.1h15.7v3.1h3.1v12.6H716.8z M729.4,545.2V542H720v3.1
		H729.4z"/>
	<path class="st0" d="M752.9,548.3v-3.1h15.7V542h-12.6v-3.1h-3.1v-3.1h3.1v-3.1h15.7v3.1h-12.6v3.1h12.6v3.1h3.1v3.1h-3.1v3.1
		H752.9z"/>
	<path class="st0" d="M779.6,548.3v-25.1h6.3v9.4h12.6v3.1h3.1v12.6h-6.3v-12.6h-9.4v12.6H779.6z"/>
	<path class="st0" d="M806.3,529.5v-6.3h6.3v6.3H806.3z M806.3,548.3v-15.7h6.3v15.7H806.3z"/>
	<path class="st0" d="M817.3,548.3v-25.1h6.3v9.4h12.6v3.1h3.1v9.4h-3.1v3.1H817.3z M833,545.2v-9.4h-9.4v9.4H833z"/>
	<path class="st0" d="M847.2,548.3v-3.1H844V542h3.1v-3.1h12.6v-3.1h-12.6v-3.1h15.7v3.1h3.1v12.6H847.2z M859.7,545.2V542h-9.4v3.1
		H859.7z"/>
	<path class="st0" d="M883.3,529.5v-6.3h6.3v6.3H883.3z M883.3,548.3v-15.7h6.3v15.7H883.3z"/>
	<path class="st0" d="M894.3,548.3v-15.7h18.8v3.1h3.1v12.6H910v-12.6h-9.4v12.6H894.3z"/>
	<path class="st0" d="M924.1,548.3v-3.1H921v-12.6h6.3v12.6h9.4v-12.6h6.3v12.6h-3.1v3.1H924.1z"/>
</g>
<g>
	<path class="st0" d="M1056.8,138.1V113h6.3v22h12.6v3.1H1056.8z"/>
	<path class="st0" d="M1083.5,138.1V135h-3.1v-3.1h3.1v-3.1h12.6v-3.1h-12.6v-3.1h15.7v3.1h3.1v12.6H1083.5z M1096,135v-3.1h-9.4
		v3.1H1096z"/>
	<path class="st0" d="M1107,119.3V113h6.3v6.3H1107z M1107,138.1v-15.7h6.3v15.7H1107z"/>
	<path class="st0" d="M1118,138.1V113h6.3v15.7h3.1v-3.1h3.1v-3.1h6.3v3.1h-3.1v3.1h-3.1v3.1h3.1v3.1h3.1v3.1h-6.3V135h-3.1v-3.1
		h-3.1v6.3H1118z"/>
	<path class="st0" d="M1144.7,138.1V135h-3.1v-3.1h3.1v-3.1h12.6v-3.1h-12.6v-3.1h15.7v3.1h3.1v12.6H1144.7z M1157.3,135v-3.1h-9.4
		v3.1H1157.3z"/>
	<path class="st0" d="M1174.5,128.7v-3.1h3.1v-3.1h6.3v-6.3h-9.4v3.1h-6.3v-3.1h3.1V113h15.7v3.1h3.1v6.3h-3.1v3.1h-6.3v3.1H1174.5z
		 M1174.5,138.1v-6.3h6.3v6.3H1174.5z"/>
	<path class="st0" d="M1210.7,138.1V135h-3.1v-18.8h3.1V113h15.7v3.1h3.1v15.7h-3.1v3.1h-3.1v3.1H1210.7z M1220.1,135v-3.1h-3.1
		v-3.1h6.3v-12.6h-9.4V135H1220.1z M1226.4,138.1V135h3.1v3.1H1226.4z"/>
	<path class="st0" d="M1237.4,138.1V135h-3.1v-12.6h6.3V135h9.4v-12.6h6.3V135h-3.1v3.1H1237.4z"/>
	<path class="st0" d="M1264.1,138.1V135h-3.1v-9.4h3.1v-3.1h15.7v3.1h3.1v6.3h-15.7v3.1h12.6v3.1H1264.1z M1276.6,128.7v-3.1h-9.4
		v3.1H1276.6z"/>
	<path class="st0" d="M1287.6,138.1v-15.7h18.8v3.1h3.1v12.6h-6.3v-12.6h-3.1v12.6h-3.1v-12.6h-3.1v12.6H1287.6z"/>
	<path class="st0" d="M1330,138.1V135h-3.1v-9.4h3.1v-3.1h15.7v3.1h3.1v6.3h-15.7v3.1h12.6v3.1H1330z M1342.6,128.7v-3.1h-9.4v3.1
		H1342.6z M1334.7,119.3v-3.1h3.1V113h6.3v3.1h-3.1v3.1H1334.7z"/>
	<path class="st0" d="M1369.3,138.1V135h-3.1v-22h6.3v22h3.1v3.1H1369.3z"/>
	<path class="st0" d="M1383.4,138.1V135h-3.1v-3.1h3.1v-3.1h12.6v-3.1h-12.6v-3.1h15.7v3.1h3.1v12.6H1383.4z M1396,135v-3.1h-9.4
		v3.1H1396z"/>
	<path class="st0" d="M1407,119.3V113h6.3v6.3H1407z M1407,138.1v-15.7h6.3v15.7H1407z"/>
	<path class="st0" d="M1417.9,138.1V113h6.3v15.7h3.1v-3.1h3.1v-3.1h6.3v3.1h-3.1v3.1h-3.1v3.1h3.1v3.1h3.1v3.1h-6.3V135h-3.1v-3.1
		h-3.1v6.3H1417.9z"/>
	<path class="st0" d="M1444.6,138.1V135h-3.1v-3.1h3.1v-3.1h12.6v-3.1h-12.6v-3.1h15.7v3.1h3.1v12.6H1444.6z M1457.2,135v-3.1h-9.4
		v3.1H1457.2z"/>
	<path class="st0" d="M1474.5,128.7v-3.1h3.1v-3.1h6.3v-6.3h-9.4v3.1h-6.3v-3.1h3.1V113h15.7v3.1h3.1v6.3h-3.1v3.1h-6.3v3.1H1474.5z
		 M1474.5,138.1v-6.3h6.3v6.3H1474.5z"/>
	<path class="st0" d="M1026.1,179.6v-18.8h3.1v-3.1h3.1v-3.1h9.4v3.1h3.1v3.1h3.1v18.8h-6.3v-9.4h-9.4v9.4H1026.1z M1041.8,167v-6.3
		h-3.1v-3.1h-3.1v3.1h-3.1v6.3H1041.8z"/>
	<path class="st0" d="M1068.5,189v-9.4H1056v-3.1h-3.1V167h3.1v-3.1h18.8V189H1068.5z M1068.5,176.5V167h-9.4v9.4H1068.5z"/>
	<path class="st0" d="M1082.7,179.6v-3.1h-3.1v-12.6h6.3v12.6h9.4v-12.6h6.3v12.6h-3.1v3.1H1082.7z"/>
	<path class="st0" d="M1106.2,160.8v-6.3h6.3v6.3H1106.2z M1106.2,179.6v-15.7h6.3v15.7H1106.2z"/>
	<path class="st0" d="M1129.8,179.6v-15.7h18.8v3.1h3.1v12.6h-6.3V167h-9.4v12.6H1129.8z"/>
	<path class="st0" d="M1159.6,179.6v-3.1h-3.1V167h3.1v-3.1h15.7v3.1h3.1v9.4h-3.1v3.1H1159.6z M1172.2,176.5V167h-9.4v9.4H1172.2z
		 M1164.3,160.8v-3.1h3.1v-3.1h6.3v3.1h-3.1v3.1H1164.3z"/>
	<path class="st0" d="M1183.2,179.6v-3.1h15.7v-3.1h-12.6v-3.1h-3.1V167h3.1v-3.1h15.7v3.1h-12.6v3.1h12.6v3.1h3.1v3.1h-3.1v3.1
		H1183.2z"/>
	<path class="st0" d="M1228.7,179.6v-3.1h-3.1v-3.1h-3.1v-9.4h6.3v9.4h3.1v3.1h3.1v-3.1h3.1v-9.4h6.3v9.4h-3.1v3.1h-3.1v3.1H1228.7z
		"/>
	<path class="st0" d="M1252.3,179.6v-3.1h-3.1v-3.1h3.1v-3.1h12.6V167h-12.6v-3.1h15.7v3.1h3.1v12.6H1252.3z M1264.8,176.5v-3.1
		h-9.4v3.1H1264.8z"/>
	<path class="st0" d="M1275.8,179.6v-15.7h18.8v3.1h3.1v12.6h-6.3V167h-3.1v12.6h-3.1V167h-3.1v12.6H1275.8z"/>
	<path class="st0" d="M1305.7,179.6v-3.1h-3.1V167h3.1v-3.1h15.7v3.1h3.1v9.4h-3.1v3.1H1305.7z M1318.2,176.5V167h-9.4v9.4H1318.2z"
		/>
	<path class="st0" d="M1329.2,179.6v-3.1h15.7v-3.1h-12.6v-3.1h-3.1V167h3.1v-3.1h15.7v3.1h-12.6v3.1h12.6v3.1h3.1v3.1h-3.1v3.1
		H1329.2z"/>
	<path class="st0" d="M1368.5,179.6v-15.7h18.8v3.1h3.1v12.6h-6.3V167h-3.1v12.6h-3.1V167h-3.1v12.6H1368.5z"/>
	<path class="st0" d="M1398.3,179.6v-3.1h-3.1v-3.1h3.1v-3.1h12.6V167h-12.6v-3.1h15.7v3.1h3.1v12.6H1398.3z M1410.9,176.5v-3.1
		h-9.4v3.1H1410.9z"/>
	<path class="st0" d="M1421.9,179.6v-15.7h18.8v3.1h3.1v12.6h-6.3V167h-9.4v12.6H1421.9z"/>
	<path class="st0" d="M1451.7,179.6v-3.1h-3.1V167h3.1v-3.1h12.6v-9.4h6.3v25.1H1451.7z M1464.3,176.5V167h-9.4v9.4H1464.3z"/>
	<path class="st0" d="M1478.4,179.6v-3.1h-3.1v-3.1h3.1v-3.1h12.6V167h-12.6v-3.1h15.7v3.1h3.1v12.6H1478.4z M1491,176.5v-3.1h-9.4
		v3.1H1491z"/>
	<path class="st0" d="M1502,179.6v-15.7h6.3v3.1h3.1v3.1h-3.1v9.4H1502z M1511.4,167v-3.1h9.4v3.1H1511.4z"/>
	<path class="st0" d="M1042.6,221.1v-3.1h-3.1v-9.4h3.1v-3.1h15.7v3.1h3.1v9.4h-3.1v3.1H1042.6z M1055.2,217.9v-9.4h-9.4v9.4H1055.2
		z"/>
	<path class="st0" d="M1081.9,221.1v-3.1h-3.1v-9.4h3.1v-3.1h15.7v3.1h3.1v3.1h-6.3v-3.1h-9.4v9.4h9.4v-3.1h6.3v3.1h-3.1v3.1H1081.9
		z"/>
	<path class="st0" d="M1108.6,221.1v-3.1h-3.1v-3.1h3.1v-3.1h12.6v-3.1h-12.6v-3.1h15.7v3.1h3.1v12.6H1108.6z M1121.2,217.9v-3.1
		h-9.4v3.1H1121.2z"/>
	<path class="st0" d="M1132.2,221.1v-15.7h6.3v3.1h3.1v3.1h-3.1v9.4H1132.2z M1141.6,208.5v-3.1h9.4v3.1H1141.6z"/>
	<path class="st0" d="M1158.8,221.1v-3.1h-3.1v-3.1h3.1v-3.1h12.6v-3.1h-12.6v-3.1h15.7v3.1h3.1v12.6H1158.8z M1171.4,217.9v-3.1
		h-9.4v3.1H1171.4z"/>
	<path class="st0" d="M1182.4,221.1v-15.7h18.8v3.1h3.1v12.6h-6.3v-12.6h-3.1v12.6h-3.1v-12.6h-3.1v12.6H1182.4z"/>
	<path class="st0" d="M1212.2,221.1v-3.1h-3.1v-9.4h3.1v-3.1h15.7v3.1h3.1v6.3h-15.7v3.1h12.6v3.1H1212.2z M1224.8,211.6v-3.1h-9.4
		v3.1H1224.8z"/>
	<path class="st0" d="M1238.9,221.1v-3.1h-3.1v-22h6.3v22h3.1v3.1H1238.9z"/>
	<path class="st0" d="M1253.1,221.1v-3.1h-3.1v-9.4h3.1v-3.1h15.7v3.1h3.1v9.4h-3.1v3.1H1253.1z M1265.6,217.9v-9.4h-9.4v9.4H1265.6
		z"/>
	<path class="st0" d="M1289.2,230.5v-25.1h18.8v3.1h3.1v9.4h-3.1v3.1h-12.6v9.4H1289.2z M1304.9,217.9v-9.4h-9.4v9.4H1304.9z"/>
	<path class="st0" d="M1319,221.1v-3.1h-3.1v-3.1h3.1v-3.1h12.6v-3.1H1319v-3.1h15.7v3.1h3.1v12.6H1319z M1331.6,217.9v-3.1h-9.4
		v3.1H1331.6z"/>
	<path class="st0" d="M1342.6,221.1v-15.7h6.3v3.1h3.1v3.1h-3.1v9.4H1342.6z M1352,208.5v-3.1h9.4v3.1H1352z"/>
	<path class="st0" d="M1369.3,221.1v-3.1h-3.1v-3.1h3.1v-3.1h12.6v-3.1h-12.6v-3.1h15.7v3.1h3.1v12.6H1369.3z M1381.8,217.9v-3.1
		h-9.4v3.1H1381.8z"/>
	<path class="st0" d="M1408.5,221.1v-3.1h-3.1v-3.1h3.1v-3.1h12.6v-3.1h-12.6v-3.1h15.7v3.1h3.1v12.6H1408.5z M1421.1,217.9v-3.1
		h-9.4v3.1H1421.1z"/>
	<path class="st0" d="M1447.8,221.1v-3.1h-3.1v-22h6.3v22h3.1v3.1H1447.8z"/>
	<path class="st0" d="M1461.9,221.1v-3.1h-3.1v-12.6h6.3v12.6h9.4v-12.6h6.3v12.6h-3.1v3.1H1461.9z"/>
	<path class="st0" d="M1488.6,221.1v-3.1h-3.1v-3.1h3.1v-3.1h12.6v-3.1h-12.6v-3.1h15.7v3.1h3.1v12.6H1488.6z M1501.2,217.9v-3.1
		h-9.4v3.1H1501.2z"/>
</g>
<g>
	<path class="st0" d="M1596.2,506.9v-25.1h22v3.1h-15.7v6.3h9.4v3.1h-9.4v12.6H1596.2z"/>
	<path class="st0" d="M1626,506.9v-3.1h-3.1v-3.1h3.1v-3.1h12.6v-3.1H1626v-3.1h15.7v3.1h3.1v12.6H1626z M1638.6,503.7v-3.1h-9.4
		v3.1H1638.6z"/>
	<path class="st0" d="M1649.5,506.9v-3.1h3.1v-3.1h3.1v-3.1h3.1v-3.1h-9.4v-3.1h22v3.1h-3.1v3.1h-3.1v3.1h-3.1v3.1h9.4v3.1H1649.5z"
		/>
	<path class="st0" d="M1679.4,506.9v-3.1h-3.1v-9.4h3.1v-3.1h15.7v3.1h3.1v6.3h-15.7v3.1h12.6v3.1H1679.4z M1692,497.4v-3.1h-9.4
		v3.1H1692z"/>
	<path class="st0" d="M1702.9,506.9v-15.7h6.3v3.1h3.1v3.1h-3.1v9.4H1702.9z M1712.4,494.3v-3.1h9.4v3.1H1712.4z"/>
	<path class="st0" d="M1742.2,506.9v-3.1h-3.1v-9.4h3.1v-3.1h15.7v3.1h3.1v9.4h-3.1v3.1H1742.2z M1754.8,503.7v-9.4h-9.4v9.4H1754.8
		z"/>
	<path class="st0" d="M1786.2,513.1v-6.3h-4.7v-3.1h-3.1v-3.1h6.3v3.1h3.1v-9.4h-6.3v-3.1h-3.1v-6.3h3.1v-3.1h4.7v-6.3h6.3v6.3h4.7
		v3.1h3.1v3.1h-6.3v-3.1h-3.1v6.3h6.3v3.1h3.1v9.4h-3.1v3.1h-4.7v6.3H1786.2z M1787.7,491.2v-6.3h-3.1v6.3H1787.7z M1794,503.7v-9.4
		h-3.1v9.4H1794z"/>
	<path class="st0" d="M1805,506.9v-25.1h18.8v3.1h3.1v6.3h-3.1v3.1h3.1v12.6h-6.3v-12.6h-9.4v12.6H1805z M1820.7,491.2v-6.3h-9.4
		v6.3H1820.7z"/>
	<path class="st0" d="M1831.7,506.9v-25.1h22v3.1H1838v6.3h9.4v3.1h-9.4v9.4h15.7v3.1H1831.7z"/>
	<path class="st0" d="M1858.4,506.9V488h3.1v-3.1h3.1v-3.1h9.4v3.1h3.1v3.1h3.1v18.8h-6.3v-9.4h-9.4v9.4H1858.4z M1874.1,494.3V488
		h-3.1v-3.1h-3.1v3.1h-3.1v6.3H1874.1z"/>
	<path class="st0" d="M1888.2,506.9v-3.1h-3.1v-22h6.3v22h9.4v-22h6.3v22h-3.1v3.1H1888.2z"/>
	<path class="st0" d="M1603.2,548.3v-3.1h-3.1V542h-3.1v-9.4h6.3v9.4h3.1v3.1h3.1V542h3.1v-9.4h6.3v9.4h-3.1v3.1h-3.1v3.1H1603.2z"
		/>
	<path class="st0" d="M1626.8,548.3v-3.1h-3.1V542h3.1v-3.1h12.6v-3.1h-12.6v-3.1h15.7v3.1h3.1v12.6H1626.8z M1639.3,545.2V542h-9.4
		v3.1H1639.3z"/>
	<path class="st0" d="M1653.5,548.3v-3.1h-3.1v-22h6.3v22h3.1v3.1H1653.5z"/>
	<path class="st0" d="M1667.6,548.3v-3.1h-3.1v-9.4h3.1v-3.1h15.7v3.1h3.1v6.3h-15.7v3.1h12.6v3.1H1667.6z M1680.2,538.9v-3.1h-9.4
		v3.1H1680.2z"/>
	<path class="st0" d="M1691.2,548.3v-15.7h6.3v3.1h3.1v3.1h-3.1v9.4H1691.2z M1700.6,535.8v-3.1h9.4v3.1H1700.6z"/>
	<path class="st0" d="M1727.3,548.3v-15.7h18.8v3.1h3.1v12.6h-6.3v-12.6h-3.1v12.6h-3.1v-12.6h-3.1v12.6H1727.3z"/>
	<path class="st0" d="M1757.1,548.3v-3.1h-3.1V542h3.1v-3.1h12.6v-3.1h-12.6v-3.1h15.7v3.1h3.1v12.6H1757.1z M1769.7,545.2V542h-9.4
		v3.1H1769.7z"/>
	<path class="st0" d="M1780.7,529.5v-6.3h6.3v6.3H1780.7z M1780.7,548.3v-15.7h6.3v15.7H1780.7z"/>
	<path class="st0" d="M1791.7,548.3v-3.1h15.7V542h-12.6v-3.1h-3.1v-3.1h3.1v-3.1h15.7v3.1h-12.6v3.1h12.6v3.1h3.1v3.1h-3.1v3.1
		H1791.7z"/>
	<path class="st0" d="M1846.6,557.7v-9.4h-12.6v-3.1h-3.1v-9.4h3.1v-3.1h18.8v25.1H1846.6z M1846.6,545.2v-9.4h-9.4v9.4H1846.6z"/>
	<path class="st0" d="M1860.8,548.3v-3.1h-3.1v-12.6h6.3v12.6h9.4v-12.6h6.3v12.6h-3.1v3.1H1860.8z"/>
	<path class="st0" d="M1887.5,548.3v-3.1h-3.1v-9.4h3.1v-3.1h15.7v3.1h3.1v6.3h-15.7v3.1h12.6v3.1H1887.5z M1900,538.9v-3.1h-9.4
		v3.1H1900z"/>
	<path class="st0" d="M1691.9,589.8v-3.1h-3.1v-9.4h3.1v-3.1h15.7v3.1h3.1v9.4h-3.1v3.1H1691.9z M1704.5,586.6v-9.4h-9.4v9.4H1704.5
		z"/>
	<path class="st0" d="M1728.1,589.8v-15.7h6.3v3.1h3.1v3.1h-3.1v9.4H1728.1z M1737.5,577.2v-3.1h9.4v3.1H1737.5z"/>
	<path class="st0" d="M1754.8,589.8v-3.1h-3.1v-9.4h3.1v-3.1h15.7v3.1h3.1v6.3h-15.7v3.1h12.6v3.1H1754.8z M1767.3,580.4v-3.1h-9.4
		v3.1H1767.3z"/>
	<path class="st0" d="M1781.5,589.8v-3.1h-3.1v-3.1h3.1v-3.1h12.6v-3.1h-12.6v-3.1h15.7v3.1h3.1v12.6H1781.5z M1794,586.6v-3.1h-9.4
		v3.1H1794z"/>
	<path class="st0" d="M1808.2,589.8v-3.1h-3.1v-22h6.3v22h3.1v3.1H1808.2z"/>
</g>
<g>
	<path class="st0" d="M2523,506.9v-12.6h-3.1v-3.1h3.1v-6.3h3.1v-3.1h9.4v3.1h-6.3v6.3h6.3v3.1h-6.3v12.6H2523z"/>
	<path class="st0" d="M2543.4,506.9v-3.1h-3.1v-12.6h6.3v12.6h9.4v-12.6h6.3v12.6h-3.1v3.1H2543.4z"/>
	<path class="st0" d="M2567,506.9v-15.7h18.8v3.1h3.1v12.6h-6.3v-12.6h-9.4v12.6H2567z"/>
	<path class="st0" d="M2596.8,506.9v-3.1h-3.1v-9.4h3.1v-3.1h12.6v-9.4h6.3v25.1H2596.8z M2609.4,503.7v-9.4h-9.4v9.4H2609.4z"/>
	<path class="st0" d="M2623.5,506.9v-3.1h-3.1v-3.1h3.1v-3.1h12.6v-3.1h-12.6v-3.1h15.7v3.1h3.1v12.6H2623.5z M2636.1,503.7v-3.1
		h-9.4v3.1H2636.1z"/>
	<path class="st0" d="M2647.1,506.9v-15.7h6.3v3.1h3.1v3.1h-3.1v9.4H2647.1z M2656.5,494.3v-3.1h9.4v3.1H2656.5z"/>
	<path class="st0" d="M2686.3,506.9v-3.1h-3.1v-9.4h3.1v-3.1h15.7v3.1h3.1v9.4h-3.1v3.1H2686.3z M2698.9,503.7v-9.4h-9.4v9.4H2698.9
		z"/>
	<path class="st0" d="M2722.4,516.3v-25.1h18.8v3.1h3.1v9.4h-3.1v3.1h-12.6v9.4H2722.4z M2738.2,503.7v-9.4h-9.4v9.4H2738.2z"/>
	<path class="st0" d="M2749.1,506.9v-15.7h6.3v3.1h3.1v3.1h-3.1v9.4H2749.1z M2758.6,494.3v-3.1h9.4v3.1H2758.6z"/>
	<path class="st0" d="M2772.7,488v-6.3h6.3v6.3H2772.7z M2772.7,506.9v-15.7h6.3v15.7H2772.7z"/>
	<path class="st0" d="M2783.7,506.9v-15.7h18.8v3.1h3.1v12.6h-6.3v-12.6h-3.1v12.6h-3.1v-12.6h-3.1v12.6H2783.7z"/>
	<path class="st0" d="M2813.5,506.9v-3.1h-3.1v-9.4h3.1v-3.1h15.7v3.1h3.1v6.3h-15.7v3.1h12.6v3.1H2813.5z M2826.1,497.4v-3.1h-9.4
		v3.1H2826.1z"/>
	<path class="st0" d="M2837.1,488v-6.3h6.3v6.3H2837.1z M2837.1,506.9v-15.7h6.3v15.7H2837.1z"/>
	<path class="st0" d="M2848.1,506.9v-15.7h6.3v3.1h3.1v3.1h-3.1v9.4H2848.1z M2857.5,494.3v-3.1h9.4v3.1H2857.5z"/>
	<path class="st0" d="M2874.8,506.9v-3.1h-3.1v-9.4h3.1v-3.1h15.7v3.1h3.1v9.4h-3.1v3.1H2874.8z M2887.3,503.7v-9.4h-9.4v9.4H2887.3
		z"/>
	<path class="st0" d="M2538.7,557.7v-25.1h18.8v3.1h3.1v9.4h-3.1v3.1H2545v9.4H2538.7z M2554.4,545.2v-9.4h-9.4v9.4H2554.4z"/>
	<path class="st0" d="M2568.6,548.3v-3.1h-3.1V542h3.1v-3.1h12.6v-3.1h-12.6v-3.1h15.7v3.1h3.1v12.6H2568.6z M2581.1,545.2V542h-9.4
		v3.1H2581.1z"/>
	<path class="st0" d="M2592.1,548.3v-15.7h6.3v3.1h3.1v3.1h-3.1v9.4H2592.1z M2601.5,535.8v-3.1h9.4v3.1H2601.5z"/>
	<path class="st0" d="M2621.9,548.3v-3.1h-3.1v-9.4h-3.1v-3.1h3.1v-9.4h6.3v9.4h6.3v3.1h-6.3v9.4h6.3v3.1H2621.9z"/>
	<path class="st0" d="M2636.1,529.5v-6.3h6.3v6.3H2636.1z M2636.1,548.3v-15.7h6.3v15.7H2636.1z"/>
	<path class="st0" d="M2650.2,548.3v-3.1h-3.1v-9.4h3.1v-3.1h12.6v-9.4h6.3v25.1H2650.2z M2662.8,545.2v-9.4h-9.4v9.4H2662.8z"/>
	<path class="st0" d="M2676.9,548.3v-3.1h-3.1v-9.4h3.1v-3.1h15.7v3.1h3.1v9.4h-3.1v3.1H2676.9z M2689.5,545.2v-9.4h-9.4v9.4H2689.5
		z"/>
	<path class="st0" d="M2713,557.7v-25.1h18.8v3.1h3.1v9.4h-3.1v3.1h-12.6v9.4H2713z M2728.7,545.2v-9.4h-9.4v9.4H2728.7z"/>
	<path class="st0" d="M2742.9,548.3v-3.1h-3.1v-9.4h3.1v-3.1h15.7v3.1h3.1v9.4h-3.1v3.1H2742.9z M2755.4,545.2v-9.4h-9.4v9.4H2755.4
		z"/>
	<path class="st0" d="M2769.6,548.3v-3.1h-3.1v-22h6.3v22h3.1v3.1H2769.6z"/>
	<path class="st0" d="M2780.5,529.5v-3.1h3.1v-3.1h6.3v3.1h-3.1v3.1H2780.5z M2780.5,548.3v-15.7h6.3v15.7H2780.5z"/>
	<path class="st0" d="M2801,548.3v-3.1h-3.1v-9.4h-3.1v-3.1h3.1v-9.4h6.3v9.4h6.3v3.1h-6.3v9.4h6.3v3.1H2801z"/>
	<path class="st0" d="M2815.1,529.5v-6.3h6.3v6.3H2815.1z M2815.1,548.3v-15.7h6.3v15.7H2815.1z"/>
	<path class="st0" d="M2829.2,548.3v-3.1h-3.1v-9.4h3.1v-3.1h15.7v3.1h3.1v3.1h-6.3v-3.1h-9.4v9.4h9.4V542h6.3v3.1h-3.1v3.1H2829.2z
		"/>
	<path class="st0" d="M2855.9,548.3v-3.1h-3.1v-9.4h3.1v-3.1h15.7v3.1h3.1v9.4h-3.1v3.1H2855.9z M2868.5,545.2v-9.4h-9.4v9.4H2868.5
		z"/>
	<path class="st0" d="M2536.4,589.8v-3.1h-3.1v-9.4h3.1v-3.1h15.7v3.1h3.1v3.1h-6.3v-3.1h-9.4v9.4h9.4v-3.1h6.3v3.1h-3.1v3.1H2536.4
		z"/>
	<path class="st0" d="M2563.1,589.8v-3.1h-3.1v-3.1h3.1v-3.1h12.6v-3.1h-12.6v-3.1h15.7v3.1h3.1v12.6H2563.1z M2575.6,586.6v-3.1
		h-9.4v3.1H2575.6z"/>
	<path class="st0" d="M2586.6,589.8v-15.7h18.8v3.1h3.1v12.6h-6.3v-12.6h-9.4v12.6H2586.6z"/>
	<path class="st0" d="M2613.3,570.9v-6.3h6.3v6.3H2613.3z M2613.3,589.8v-15.7h6.3v15.7H2613.3z"/>
	<path class="st0" d="M2624.3,589.8v-15.7h18.8v3.1h3.1v12.6h-6.3v-12.6h-9.4v12.6H2624.3z"/>
	<path class="st0" d="M2654.1,589.8v-3.1h-3.1v-9.4h3.1v-3.1h15.7v3.1h3.1v9.4h-3.1v3.1H2654.1z M2666.7,586.6v-9.4h-9.4v9.4H2666.7
		z"/>
	<path class="st0" d="M2693.4,589.8v-3.1h-3.1v-9.4h3.1v-3.1h12.6v-9.4h6.3v25.1H2693.4z M2706,586.6v-9.4h-9.4v9.4H2706z"/>
	<path class="st0" d="M2720.1,589.8v-3.1h-3.1v-9.4h3.1v-3.1h15.7v3.1h3.1v9.4h-3.1v3.1H2720.1z M2732.7,586.6v-9.4h-9.4v9.4H2732.7
		z"/>
	<path class="st0" d="M2756.2,589.8v-25.1h18.8v3.1h3.1v6.3h-3.1v3.1h3.1v9.4h-3.1v3.1H2756.2z M2771.9,574.1v-6.3h-9.4v6.3H2771.9z
		 M2771.9,586.6v-9.4h-9.4v9.4H2771.9z"/>
	<path class="st0" d="M2782.9,589.8v-15.7h6.3v3.1h3.1v3.1h-3.1v9.4H2782.9z M2792.3,577.2v-3.1h9.4v3.1H2792.3z"/>
	<path class="st0" d="M2809.6,589.8v-3.1h-3.1v-3.1h3.1v-3.1h12.6v-3.1h-12.6v-3.1h15.7v3.1h3.1v12.6H2809.6z M2822.2,586.6v-3.1
		h-9.4v3.1H2822.2z"/>
	<path class="st0" d="M2833.2,589.8v-3.1h15.7v-3.1h-12.6v-3.1h-3.1v-3.1h3.1v-3.1h15.7v3.1h-12.6v3.1h12.6v3.1h3.1v3.1h-3.1v3.1
		H2833.2z"/>
	<path class="st0" d="M2859.9,570.9v-6.3h6.3v6.3H2859.9z M2859.9,589.8v-15.7h6.3v15.7H2859.9z"/>
	<path class="st0" d="M2874,589.8v-3.1h-3.1v-22h6.3v22h3.1v3.1H2874z"/>
</g>
<g>
	<path class="st0" d="M2078.2,138.1V135h6.3v-18.8h-6.3V113h18.8v3.1h-6.3V135h6.3v3.1H2078.2z"/>
	<path class="st0" d="M2101.8,138.1v-15.7h18.8v3.1h3.1v12.6h-6.3v-12.6h-3.1v12.6h-3.1v-12.6h-3.1v12.6H2101.8z"/>
	<path class="st0" d="M2128.5,147.6v-25.1h18.8v3.1h3.1v9.4h-3.1v3.1h-12.6v9.4H2128.5z M2144.2,135v-9.4h-9.4v9.4H2144.2z"/>
	<path class="st0" d="M2158.3,138.1V135h-3.1v-9.4h3.1v-3.1h15.7v3.1h3.1v6.3h-15.7v3.1h12.6v3.1H2158.3z M2170.9,128.7v-3.1h-9.4
		v3.1H2170.9z"/>
	<path class="st0" d="M2185,138.1V135h-3.1v-9.4h3.1v-3.1h12.6V113h6.3v25.1H2185z M2197.6,135v-9.4h-9.4v9.4H2197.6z"/>
	<path class="st0" d="M2208.6,119.3V113h6.3v6.3H2208.6z M2208.6,138.1v-15.7h6.3v15.7H2208.6z"/>
	<path class="st0" d="M2219.6,138.1v-15.7h6.3v3.1h3.1v3.1h-3.1v9.4H2219.6z M2229,125.6v-3.1h9.4v3.1H2229z"/>
	<path class="st0" d="M2258.8,138.1V135h-3.1v-9.4h3.1v-3.1h15.7v3.1h3.1v9.4h-3.1v3.1H2258.8z M2271.4,135v-9.4h-9.4v9.4H2271.4z"
		/>
	<path class="st0" d="M2301.2,138.1V135h-3.1v-3.1h-3.1v-9.4h6.3v9.4h3.1v3.1h3.1v-3.1h3.1v-9.4h6.3v9.4h-3.1v3.1h-3.1v3.1H2301.2z"
		/>
	<path class="st0" d="M2324.8,138.1V135h-3.1v-9.4h3.1v-3.1h15.7v3.1h3.1v6.3h-15.7v3.1h12.6v3.1H2324.8z M2337.3,128.7v-3.1h-9.4
		v3.1H2337.3z M2329.5,119.3v-3.1h3.1V113h6.3v3.1h-3.1v3.1H2329.5z"/>
	<path class="st0" d="M2348.3,119.3V113h6.3v6.3H2348.3z M2348.3,138.1v-15.7h6.3v15.7H2348.3z"/>
	<path class="st0" d="M2362.4,138.1V135h-3.1v-9.4h3.1v-3.1h15.7v3.1h3.1v9.4h-3.1v3.1H2362.4z M2375,135v-9.4h-9.4v9.4H2375z"/>
	<path class="st0" d="M2102.6,179.6v-3.1h-3.1V167h3.1v-3.1h12.6v-9.4h6.3v25.1H2102.6z M2115.1,176.5V167h-9.4v9.4H2115.1z"/>
	<path class="st0" d="M2129.3,179.6v-3.1h-3.1v-3.1h3.1v-3.1h12.6V167h-12.6v-3.1h15.7v3.1h3.1v12.6H2129.3z M2141.8,176.5v-3.1
		h-9.4v3.1H2141.8z"/>
	<path class="st0" d="M2165.4,179.6v-25.1h6.3v9.4h9.4v-9.4h6.3v25.1h-6.3V167h-9.4v12.6H2165.4z"/>
	<path class="st0" d="M2195.2,179.6v-3.1h-3.1v-3.1h3.1v-3.1h12.6V167h-12.6v-3.1h15.7v3.1h3.1v12.6H2195.2z M2207.8,176.5v-3.1
		h-9.4v3.1H2207.8z"/>
	<path class="st0" d="M2225.1,179.6v-3.1h-3.1v-3.1h-3.1v-9.4h6.3v9.4h3.1v3.1h3.1v-3.1h3.1v-9.4h6.3v9.4h-3.1v3.1h-3.1v3.1H2225.1z
		"/>
	<path class="st0" d="M2248.6,179.6v-3.1h-3.1v-3.1h3.1v-3.1h12.6V167h-12.6v-3.1h15.7v3.1h3.1v12.6H2248.6z M2261.2,176.5v-3.1
		h-9.4v3.1H2261.2z"/>
	<path class="st0" d="M2272.2,179.6v-15.7h18.8v3.1h3.1v12.6h-6.3V167h-9.4v12.6H2272.2z"/>
	<path class="st0" d="M2314.6,179.6v-3.1h-3.1V167h3.1v-3.1h12.6v-9.4h6.3v25.1H2314.6z M2327.1,176.5V167h-9.4v9.4H2327.1z"/>
	<path class="st0" d="M2341.3,179.6v-3.1h-3.1V167h3.1v-3.1h15.7v3.1h3.1v6.3h-15.7v3.1h12.6v3.1H2341.3z M2353.8,170.2V167h-9.4
		v3.1H2353.8z"/>
	<path class="st0" d="M2060.9,221.1v-3.1h-3.1v-9.4h3.1v-3.1h12.6V196h6.3v25.1H2060.9z M2073.5,217.9v-9.4h-9.4v9.4H2073.5z"/>
	<path class="st0" d="M2087.6,221.1v-3.1h-3.1v-9.4h3.1v-3.1h15.7v3.1h3.1v9.4h-3.1v3.1H2087.6z M2100.2,217.9v-9.4h-9.4v9.4H2100.2
		z"/>
	<path class="st0" d="M2111.2,221.1v-15.7h18.8v3.1h3.1v12.6h-6.3v-12.6h-3.1v12.6h-3.1v-12.6h-3.1v12.6H2111.2z"/>
	<path class="st0" d="M2137.9,202.2V196h6.3v6.3H2137.9z M2137.9,221.1v-15.7h6.3v15.7H2137.9z"/>
	<path class="st0" d="M2148.9,221.1v-15.7h18.8v3.1h3.1v12.6h-6.3v-12.6h-9.4v12.6H2148.9z"/>
	<path class="st0" d="M2178.7,221.1v-3.1h-3.1v-3.1h3.1v-3.1h12.6v-3.1h-12.6v-3.1h15.7v3.1h3.1v12.6H2178.7z M2191.3,217.9v-3.1
		h-9.4v3.1H2191.3z"/>
	<path class="st0" d="M2202.3,221.1v-15.7h6.3v3.1h3.1v3.1h-3.1v9.4H2202.3z M2211.7,208.5v-3.1h9.4v3.1H2211.7z"/>
	<path class="st0" d="M2241.5,221.1v-3.1h-3.1v-9.4h3.1v-3.1h15.7v3.1h3.1v9.4h-3.1v3.1H2241.5z M2254.1,217.9v-9.4h-9.4v9.4H2254.1
		z"/>
	<path class="st0" d="M2277.7,221.1V196h18.8v3.1h3.1v6.3h-3.1v3.1h3.1v9.4h-3.1v3.1H2277.7z M2293.4,205.4v-6.3h-9.4v6.3H2293.4z
		 M2293.4,217.9v-9.4h-9.4v9.4H2293.4z"/>
	<path class="st0" d="M2304.4,221.1v-15.7h6.3v3.1h3.1v3.1h-3.1v9.4H2304.4z M2313.8,208.5v-3.1h9.4v3.1H2313.8z"/>
	<path class="st0" d="M2331,221.1v-3.1h-3.1v-3.1h3.1v-3.1h12.6v-3.1H2331v-3.1h15.7v3.1h3.1v12.6H2331z M2343.6,217.9v-3.1h-9.4
		v3.1H2343.6z"/>
	<path class="st0" d="M2354.6,221.1v-3.1h15.7v-3.1h-12.6v-3.1h-3.1v-3.1h3.1v-3.1h15.7v3.1h-12.6v3.1h12.6v3.1h3.1v3.1h-3.1v3.1
		H2354.6z"/>
	<path class="st0" d="M2381.3,202.2V196h6.3v6.3H2381.3z M2381.3,221.1v-15.7h6.3v15.7H2381.3z"/>
	<path class="st0" d="M2395.4,221.1v-3.1h-3.1v-22h6.3v22h3.1v3.1H2395.4z"/>
</g>
<g>
	<path class="st0" d="M3161,333.5v-25.1h22v3.1h-15.7v6.3h9.4v3.1h-9.4v9.4h15.7v3.1H3161z"/>
	<path class="st0" d="M3200.3,333.5v-15.7h18.8v3.1h3.1v12.6h-6.3V321h-3.1v12.6h-3.1V321h-3.1v12.6H3200.3z"/>
	<path class="st0" d="M3230.1,333.5v-3.1h-3.1v-3.1h3.1v-3.1h12.6V321h-12.6v-3.1h15.7v3.1h3.1v12.6H3230.1z M3242.7,330.4v-3.1
		h-9.4v3.1H3242.7z"/>
	<path class="st0" d="M3253.7,314.7v-6.3h6.3v6.3H3253.7z M3253.7,333.5v-15.7h6.3v15.7H3253.7z"/>
	<path class="st0" d="M3264.7,333.5v-3.1h15.7v-3.1h-12.6v-3.1h-3.1V321h3.1v-3.1h15.7v3.1H3271v3.1h12.6v3.1h3.1v3.1h-3.1v3.1
		H3264.7z"/>
	<path class="st0" d="M3291.4,324.1v-15.7h6.3v15.7H3291.4z M3291.4,333.5v-6.3h6.3v6.3H3291.4z"/>
	<path class="st0" d="M3164.2,375v-3.1h-3.1v-3.1h6.3v3.1h9.4v-9.4h-12.6v-3.1h-3.1V353h3.1v-3.1h15.7v3.1h3.1v3.1h-6.3V353h-9.4
		v6.3h12.6v3.1h3.1v9.4h-3.1v3.1H3164.2z"/>
	<path class="st0" d="M3190.9,375v-3.1h-3.1v-9.4h3.1v-3.1h15.7v3.1h3.1v6.3H3194v3.1h12.6v3.1H3190.9z M3203.5,365.6v-3.1h-9.4v3.1
		H3203.5z"/>
	<path class="st0" d="M3227,384.4v-25.1h18.8v3.1h3.1v9.4h-3.1v3.1h-12.6v9.4H3227z M3242.7,371.9v-9.4h-9.4v9.4H3242.7z"/>
	<path class="st0" d="M3253.7,375v-15.7h6.3v3.1h3.1v3.1h-3.1v9.4H3253.7z M3263.1,362.4v-3.1h9.4v3.1H3263.1z"/>
	<path class="st0" d="M3280.4,375v-3.1h-3.1v-9.4h3.1v-3.1h15.7v3.1h3.1v6.3h-15.7v3.1h12.6v3.1H3280.4z M3293,365.6v-3.1h-9.4v3.1
		H3293z"/>
	<path class="st0" d="M3304,384.4v-25.1h18.8v3.1h3.1v9.4h-3.1v3.1h-12.6v9.4H3304z M3319.7,371.9v-9.4h-9.4v9.4H3319.7z"/>
	<path class="st0" d="M3333.8,375v-3.1h-3.1v-3.1h3.1v-3.1h12.6v-3.1h-12.6v-3.1h15.7v3.1h3.1V375H3333.8z M3346.4,371.9v-3.1h-9.4
		v3.1H3346.4z"/>
	<path class="st0" d="M3357.3,375v-15.7h6.3v3.1h3.1v3.1h-3.1v9.4H3357.3z M3366.8,362.4v-3.1h9.4v3.1H3366.8z"/>
	<path class="st0" d="M3384,375v-3.1h-3.1v-3.1h3.1v-3.1h12.6v-3.1H3384v-3.1h15.7v3.1h3.1V375H3384z M3396.6,371.9v-3.1h-9.4v3.1
		H3396.6z"/>
	<path class="st0" d="M3407.6,375v-6.3h6.3v6.3H3407.6z"/>
</g>
<g>
	<rect y="344.9" class="st0" width="3107.9" height="10"/>
</g>
<g>
	<g>
		<path class="st0" d="M316.4,387.4c-2.2,0-4.3-0.2-6.5-0.6l1-5.9c3.6,0.6,7.4,0.6,10.9,0l1,5.9
			C320.8,387.2,318.6,387.4,316.4,387.4z M297.7,382.4c-3.8-2.2-7.1-5-10-8.4l4.6-3.9c2.4,2.8,5.2,5.2,8.4,7L297.7,382.4z
			 M335.2,382.4l-3-5.2c3.2-1.8,6-4.2,8.4-7l4.6,3.9C342.3,377.4,339,380.2,335.2,382.4z M281.2,362.8c-1.5-4.1-2.3-8.4-2.3-12.8
			l6,0c0,3.7,0.7,7.3,1.9,10.8L281.2,362.8z M351.7,362.7l-5.6-2.1c1.3-3.4,1.9-7.1,1.9-10.8l0-0.1h6l0,0.1
			C353.9,354.3,353.2,358.6,351.7,362.7z M286.8,339.2l-5.6-2c1.5-4.1,3.7-7.9,6.5-11.3l4.6,3.8C289.9,332.6,288,335.7,286.8,339.2z
			 M346,339c-1.3-3.4-3.1-6.6-5.5-9.4l4.6-3.9c2.8,3.4,5,7.1,6.6,11.2L346,339z M300.6,322.7l-3-5.2c3.8-2.2,7.9-3.7,12.2-4.5
			l1.1,5.9C307.2,319.5,303.8,320.8,300.6,322.7z M332.1,322.6c-3.2-1.8-6.7-3.1-10.3-3.7l1-5.9c4.3,0.7,8.4,2.2,12.3,4.4
			L332.1,322.6z"/>
	</g>
	<g>
		<rect x="313.4" y="251.3" class="st0" width="6" height="98.6"/>
	</g>
	<g>
		<circle class="st1" cx="316.4" cy="349.9" r="12.7"/>
	</g>
</g>
<g>
	<g>
		<path class="st0" d="M788.2,386.9c-4.3-0.7-8.4-2.2-12.3-4.4l3-5.2c3.2,1.8,6.7,3.1,10.3,3.7L788.2,386.9z M801.2,386.8l-1.1-5.9
			c3.6-0.6,7.1-1.9,10.3-3.8l3,5.2C809.6,384.6,805.5,386.1,801.2,386.8z M765.9,374.1c-2.8-3.4-5-7.1-6.6-11.2l5.6-2.1
			c1.3,3.4,3.1,6.6,5.5,9.4L765.9,374.1z M823.3,374l-4.6-3.8c2.4-2.8,4.2-6,5.5-9.5l5.6,2C828.3,366.8,826.2,370.6,823.3,374z
			 M763,350.1h-6l0-0.1c0-4.4,0.8-8.8,2.3-12.9l5.6,2.1c-1.3,3.4-1.9,7.1-1.9,10.8L763,350.1z M826.1,349.9c0-3.7-0.7-7.3-1.9-10.8
			l5.6-2.1c1.5,4.1,2.3,8.4,2.3,12.8L826.1,349.9z M770.4,329.7l-4.6-3.9c2.8-3.4,6.2-6.2,10-8.4l3,5.2
			C775.6,324.5,772.8,326.8,770.4,329.7z M818.7,329.6c-2.4-2.8-5.2-5.2-8.4-7l3-5.2c3.8,2.2,7.2,5,10,8.4L818.7,329.6z
			 M789.1,318.9l-1-5.9c2.1-0.4,4.3-0.6,6.5-0.6c0,0,0,0,0,0c2.2,0,4.3,0.2,6.5,0.6l-1,5.9c-1.8-0.3-3.6-0.5-5.4-0.5c0,0,0,0,0,0
			C792.7,318.4,790.9,318.6,789.1,318.9z"/>
	</g>
	<g>
		<rect x="791.6" y="349.9" class="st0" width="6" height="98.6"/>
	</g>
	<g>
		<circle class="st1" cx="794.6" cy="349.9" r="12.7"/>
	</g>
</g>
<g>
	<g>
		<path class="st0" d="M1272.7,387.4C1272.7,387.4,1272.7,387.4,1272.7,387.4c-2.2,0-4.4-0.2-6.5-0.6l1-5.9c1.8,0.3,3.6,0.5,5.4,0.5
			c0,0,0,0,0,0c1.8,0,3.7-0.2,5.5-0.5l1,5.9C1277.1,387.2,1274.9,387.4,1272.7,387.4z M1254,382.4c-3.8-2.2-7.2-5-10-8.4l4.6-3.9
			c2.4,2.8,5.2,5.2,8.4,7L1254,382.4z M1291.5,382.4l-3-5.2c3.2-1.8,6-4.2,8.4-7l4.6,3.9C1298.6,377.4,1295.3,380.2,1291.5,382.4z
			 M1237.5,362.8c-1.5-4.1-2.3-8.4-2.3-12.8l6,0c0,3.7,0.7,7.3,1.9,10.8L1237.5,362.8z M1308,362.7l-5.6-2.1
			c1.3-3.4,1.9-7.1,1.9-10.8l0-0.1h6l0,0.1C1310.2,354.3,1309.4,358.6,1308,362.7z M1243.1,339.2l-5.6-2c1.5-4.1,3.7-7.9,6.5-11.3
			l4.6,3.8C1246.1,332.6,1244.3,335.7,1243.1,339.2z M1302.3,339c-1.3-3.4-3.1-6.6-5.5-9.4l4.6-3.9c2.8,3.4,5,7.1,6.6,11.2
			L1302.3,339z M1256.9,322.7l-3-5.2c3.8-2.2,7.9-3.7,12.2-4.5l1.1,5.9C1263.5,319.5,1260.1,320.8,1256.9,322.7z M1288.4,322.6
			c-3.2-1.8-6.7-3.1-10.3-3.7l1-5.9c4.3,0.7,8.4,2.2,12.3,4.4L1288.4,322.6z"/>
	</g>
	<g>
		<rect x="1269.7" y="251.3" class="st0" width="6" height="98.6"/>
	</g>
	<g>
		<circle class="st1" cx="1272.7" cy="349.9" r="12.7"/>
	</g>
</g>
<g>
	<g>
		<path class="st0" d="M1744.4,386.9c-4.3-0.7-8.4-2.2-12.3-4.4l3-5.2c3.2,1.8,6.7,3.1,10.3,3.7L1744.4,386.9z M1757.5,386.8
			l-1.1-5.9c3.6-0.6,7.1-1.9,10.3-3.8l3,5.2C1765.9,384.6,1761.8,386.1,1757.5,386.8z M1722.2,374.1c-2.8-3.4-5-7.1-6.6-11.2
			l5.6-2.1c1.3,3.4,3.1,6.6,5.5,9.4L1722.2,374.1z M1779.6,374l-4.6-3.8c2.4-2.8,4.2-6,5.5-9.5l5.6,2
			C1784.6,366.8,1782.4,370.6,1779.6,374z M1719.3,350.1h-6l0-0.1c0-4.4,0.8-8.8,2.3-12.9l5.6,2.1c-1.3,3.4-1.9,7.1-1.9,10.8
			L1719.3,350.1z M1782.3,349.9c0-3.7-0.7-7.3-1.9-10.8l5.6-2.1c1.5,4.1,2.3,8.4,2.3,12.8L1782.3,349.9z M1726.7,329.7l-4.6-3.9
			c2.8-3.4,6.2-6.2,10-8.4l3,5.2C1731.9,324.5,1729.1,326.8,1726.7,329.7z M1774.9,329.6c-2.4-2.8-5.2-5.2-8.4-7l3-5.2
			c3.8,2.2,7.2,5,10,8.4L1774.9,329.6z M1745.3,318.9l-1-5.9c4.3-0.8,8.7-0.8,13,0l-1,5.9C1752.7,318.3,1748.9,318.3,1745.3,318.9z"
			/>
	</g>
	<g>
		<rect x="1747.8" y="349.9" class="st0" width="6" height="98.6"/>
	</g>
	<g>
		<circle class="st1" cx="1750.8" cy="349.9" r="12.7"/>
	</g>
</g>
<g>
	<g>
		<path class="st0" d="M2700.7,386.9c-4.3-0.7-8.4-2.2-12.3-4.4l3-5.2c3.2,1.8,6.7,3.1,10.3,3.7L2700.7,386.9z M2713.7,386.8
			l-1.1-5.9c3.6-0.6,7.1-1.9,10.3-3.8l3,5.2C2722.2,384.6,2718.1,386.1,2713.7,386.8z M2678.5,374.1c-2.8-3.4-5-7.1-6.6-11.2
			l5.6-2.1c1.3,3.4,3.1,6.6,5.5,9.4L2678.5,374.1z M2735.9,374l-4.6-3.8c2.4-2.8,4.2-6,5.5-9.5l5.6,2
			C2740.9,366.8,2738.7,370.6,2735.9,374z M2675.6,350.1h-6v-0.1c0-4.4,0.8-8.7,2.3-12.8l5.6,2.1c-1.3,3.4-1.9,7.1-1.9,10.8V350.1z
			 M2738.6,349.9c0-3.7-0.6-7.3-1.9-10.8l5.6-2.1c1.5,4.1,2.3,8.4,2.3,12.8L2738.6,349.9z M2683,329.7l-4.6-3.9
			c2.8-3.4,6.2-6.2,10-8.4l3,5.2C2688.2,324.5,2685.3,326.8,2683,329.7z M2731.2,329.6c-2.4-2.8-5.2-5.2-8.4-7l3-5.2
			c3.8,2.2,7.2,5,10,8.4L2731.2,329.6z M2701.6,318.9l-1-5.9c4.3-0.8,8.7-0.8,13,0l-1,5.9C2709,318.3,2705.2,318.3,2701.6,318.9z"/>
	</g>
	<g>
		<rect x="2704.1" y="349.9" class="st0" width="6" height="98.6"/>
	</g>
	<g>
		<circle class="st1" cx="2707.1" cy="349.9" r="12.7"/>
	</g>
</g>
<g>
	<g>
		<path class="st0" d="M2229,387.4C2229,387.4,2229,387.4,2229,387.4c-2.2,0-4.4-0.2-6.5-0.6l1-5.9c1.8,0.3,3.6,0.5,5.5,0.5
			c1.8,0,3.7-0.2,5.5-0.5l1,5.9C2233.4,387.2,2231.2,387.4,2229,387.4z M2210.3,382.4c-3.8-2.2-7.1-5-10-8.4l4.6-3.9
			c2.4,2.8,5.2,5.2,8.4,7L2210.3,382.4z M2247.8,382.4l-3-5.2c3.2-1.8,6-4.2,8.4-7l4.6,3.9C2254.9,377.4,2251.5,380.2,2247.8,382.4z
			 M2193.7,362.8c-1.5-4.1-2.3-8.4-2.3-12.8l6,0c0,3.7,0.6,7.3,1.9,10.8L2193.7,362.8z M2264.2,362.7l-5.6-2.1
			c1.3-3.4,1.9-7.1,1.9-10.8v-0.1h6v0.1C2266.5,354.3,2265.7,358.6,2264.2,362.7z M2199.3,339.2l-5.6-2c1.5-4.1,3.7-7.9,6.5-11.3
			l4.6,3.8C2202.4,332.6,2200.6,335.7,2199.3,339.2z M2258.6,339c-1.3-3.4-3.1-6.6-5.5-9.4l4.6-3.9c2.8,3.4,5,7.1,6.6,11.2
			L2258.6,339z M2213.2,322.7l-3-5.2c3.8-2.2,7.9-3.7,12.2-4.5l1.1,5.9C2219.8,319.5,2216.3,320.8,2213.2,322.7z M2244.6,322.6
			c-3.2-1.8-6.7-3.1-10.3-3.7l1-5.9c4.3,0.7,8.4,2.2,12.3,4.4L2244.6,322.6z"/>
	</g>
	<g>
		<rect x="2226" y="251.3" class="st0" width="6" height="98.6"/>
	</g>
	<g>
		<circle class="st1" cx="2229" cy="349.9" r="12.7"/>
	</g>
</g>
<image style="overflow:visible;" width="362" height="346" xlink:href="FA56DD85.jpg"  transform="matrix(0.7754 0 0 0.7754 654.2115 -0.3774)">
</image>
<image style="overflow:visible;" width="436" height="299" xlink:href="FA56DD83.jpg"  transform="matrix(0.8264 0 0 0.8264 1098.0548 436.0055)">
</image>
<image style="overflow:visible;" width="1642" height="994" xlink:href="FA56DD8C.jpg"  transform="matrix(0.2395 0 0 0.2395 1588.6742 25.7128)">
</image>
<image style="overflow:visible;" width="198" height="400" xlink:href="../../../../../Downloads/unnamed.png"  transform="matrix(0.7207 0 0 0.7207 2157.627 436.0055)">
</image>
<g>
	
		<rect x="2054.9" y="564.1" transform="matrix(0.7071 -0.7071 0.7071 0.7071 248.687 1743.5371)" class="st2" width="348.1" height="15"/>
</g>
<image style="overflow:visible;" width="300" height="212" xlink:href="FA56DD8D.jpg"  transform="matrix(1.2171 0 0 1.2171 2523.395 -7.2564)">
</image>
<g>
	<rect x="3490.9" y="344.9" class="st0" width="170.1" height="10"/>
</g>
</svg>
