<?xml version="1.0" encoding="utf-8"?>
<!-- Generator: Adobe Illustrator 27.3.1, SVG Export Plug-In . SVG Version: 6.00 Build 0)  -->
<svg version="1.1" id="Camada_1" xmlns="http://www.w3.org/2000/svg" xmlns:xlink="http://www.w3.org/1999/xlink" x="0px" y="0px"
	 viewBox="0 0 121.4 121.3" style="enable-background:new 0 0 121.4 121.3;" xml:space="preserve">
<style type="text/css">
	.st0{fill:#FFFFFF;}
</style>
<g id="bscscan-logo-light" transform="translate(-219.378 -213.334)">
	<g id="bscscan-logo-light-circle">
		<g id="Group_3">
			<path id="Path_1" class="st0" d="M244.6,271.1c0-2.8,2.3-5.1,5.1-5.1c0,0,0,0,0,0l8.6,0c2.8,0,5.2,2.3,5.2,5.2l0,0v32.4
				c1-0.3,2.2-0.6,3.6-0.9c1.9-0.5,3.3-2.2,3.3-4.2v-40.2c0-2.8,2.3-5.2,5.2-5.2h8.6c2.8,0,5.2,2.3,5.2,5.2v37.3
				c0,0,2.1-0.9,4.2-1.8c1.6-0.7,2.6-2.2,2.6-4v-44.5c0-2.8,2.3-5.2,5.1-5.2h8.6c2.8,0,5.1,2.3,5.1,5.2V282c7.4-5.4,15-11.9,21-19.7
				c1.8-2.3,2.3-5.3,1.3-8.1c-11-31.6-45.6-48.4-77.2-37.4c-31.6,11-48.4,45.6-37.4,77.2c1.2,3.6,2.8,7,4.7,10.3
				c1.5,2.6,4.3,4.1,7.3,3.8c1.6-0.1,3.6-0.3,6.1-0.6c2.2-0.2,3.8-2.1,3.8-4.3L244.6,271.1"/>
			<path id="Path_2" class="st0" d="M244.4,323.1c27.1,19.7,65,13.7,84.7-13.4c7.5-10.4,11.6-22.9,11.6-35.7c0-1.4-0.1-2.8-0.2-4.2
				C318.4,302.9,277.5,318.4,244.4,323.1"/>
		</g>
	</g>
</g>
</svg>
