<?xml version="1.0" encoding="utf-8"?>
<!-- Generator: Adobe Illustrator 27.3.1, SVG Export Plug-In . SVG Version: 6.00 Build 0)  -->
<svg version="1.1" id="Camada_1" xmlns="http://www.w3.org/2000/svg" xmlns:xlink="http://www.w3.org/1999/xlink" x="0px" y="0px"
	 viewBox="0 0 562.5 666.7" style="enable-background:new 0 0 562.5 666.7;" xml:space="preserve">
<style type="text/css">
	.st0{fill:#FFA500;}
</style>
<path class="st0" d="M78.5,613.8c29.3,24.6,64,41.8,101.3,50.4c3.6,1.2,6-3.5,3.6-5.8c-79.8-76.2-36-158.6-3.6-195.8
	c23.1-26.5,56-70.2,53.6-128.8c0-5.9,6-10.6,10.7-7c45.3,23.4,76.3,75,84.6,117.2c13.1-12.9,17.9-32.8,17.9-50.4
	c0-5.9,7.1-10.6,13.1-5.9c42.9,38.7,116.8,169.9-2.4,273c-2.4,2.4,0,7.1,2.4,5.9c36.1-9.5,70.1-25.8,100.1-48.1
	c194.2-150,67.9-416-14.3-503.9c-10.7-10.6-29.8-3.5-29.8,11.7c-1.2,31.7-10.7,66.8-35.7,90.2C361,136.8,297.4,46.3,206.9,1.8
	c-11.9-5.9-26.2,3.5-25,16.4c2.3,109-68.8,178.4-130.7,268.6C-3.7,367.7-39.4,516.5,78.5,613.8L78.5,613.8L78.5,613.8z"/>
</svg>
