<?xml version="1.0" encoding="utf-8"?>
<!-- Generator: Adobe Illustrator 27.3.1, SVG Export Plug-In . SVG Version: 6.00 Build 0)  -->
<svg version="1.1" id="Camada_1" xmlns="http://www.w3.org/2000/svg" xmlns:xlink="http://www.w3.org/1999/xlink" x="0px" y="0px"
	 viewBox="0 0 800 800" style="enable-background:new 0 0 800 800;" xml:space="preserve">
<style type="text/css">
	.st0{fill:none;stroke:#F9F07D;stroke-width:50;stroke-miterlimit:10;}
</style>
<path class="st0" d="M600,183.3c0,6.5-0.7,12.8-2.1,18.8c6-1.4,12.3-2.1,18.8-2.1c46,0,83.3,37.3,83.3,83.3s-37.3,83.3-83.3,83.3
	c-25.3,0-52-5.5-74.6,5.8c-26.4,13.1-50.7,30.5-71.8,51.6L424,470.2c-21.1,21.1-38.5,45.4-51.6,71.8c-11.2,22.7-5.8,49.3-5.8,74.6
	c0,46-37.3,83.3-83.3,83.3S200,662.7,200,616.7c0-6.5,0.7-12.8,2.1-18.8c-6,1.4-12.3,2.1-18.8,2.1c-46,0-83.3-37.3-83.3-83.3
	s37.3-83.3,83.3-83.3c25.3,0,52,5.5,74.6-5.8c26.4-13.1,50.7-30.5,71.8-51.6l46.2-46.2c21.1-21.1,38.5-45.4,51.6-71.8
	c11.2-22.7,5.8-49.3,5.8-74.6c0-46,37.3-83.3,83.3-83.3S600,137.3,600,183.3z"/>
</svg>
