<?xml version="1.0" encoding="utf-8"?>
<!-- Generator: Adobe Illustrator 27.3.1, SVG Export Plug-In . SVG Version: 6.00 Build 0)  -->
<svg version="1.1" id="Camada_1" xmlns="http://www.w3.org/2000/svg" xmlns:xlink="http://www.w3.org/1999/xlink" x="0px" y="0px"
	 viewBox="0 0 600 572.2" style="enable-background:new 0 0 600 572.2;" xml:space="preserve">
<style type="text/css">
	.st0{fill:#FFFFFF;}
</style>
<path class="st0" d="M322,15.6l55,169.1c3.1,9.5,12,16,22,16h177.8c22.4,0,31.7,28.7,13.6,41.9L446.5,347.1
	c-8.1,5.9-11.5,16.3-8.4,25.9l55,169.1c6.9,21.3-17.5,39.1-35.6,25.9L313.6,463.5c-8.1-5.9-19.1-5.9-27.2,0L142.5,568
	c-18.1,13.2-42.5-4.6-35.6-25.9l55-169.1c3.1-9.5-0.3-20-8.4-25.9L9.6,242.6c-18.1-13.2-8.8-41.9,13.6-41.9H201c10,0,18.9-6.5,22-16
	l55-169.1C284.9-5.7,315.1-5.7,322,15.6z"/>
</svg>
