<?xml version="1.0" encoding="utf-8"?>
<!-- Generator: Adobe Illustrator 27.3.1, SVG Export Plug-In . SVG Version: 6.00 Build 0)  -->
<svg version="1.1" id="Camada_1" xmlns="http://www.w3.org/2000/svg" xmlns:xlink="http://www.w3.org/1999/xlink" x="0px" y="0px"
	 viewBox="0 0 600 572.2" style="enable-background:new 0 0 600 572.2;" xml:space="preserve">
<style type="text/css">
	.st0{fill:#00EEEF;}
</style>
<path class="st0" d="M333.1,24.1l46.7,143.7c4.7,14.4,18,24.1,33.1,24.1h151.1c33.8,0,47.8,43.2,20.5,63l-122.3,88.8
	c-12.2,8.9-17.3,24.6-12.7,39l46.7,143.7c10.4,32.1-26.3,58.8-53.6,39l-122.3-88.8c-12.2-8.9-28.8-8.9-41,0l-122.3,88.8
	c-27.3,19.8-64.1-6.9-53.6-39l46.7-143.7c4.7-14.4-0.4-30.1-12.7-39L15.4,254.9c-27.3-19.8-13.3-63,20.5-63H187
	c15.1,0,28.5-9.7,33.1-24.1l46.7-143.7C277.3-8,322.7-8,333.1,24.1z"/>
</svg>
