<?xml version="1.0" encoding="utf-8"?>
<!-- Generator: Adobe Illustrator 27.3.1, SVG Export Plug-In . SVG Version: 6.00 Build 0)  -->
<svg version="1.1" id="Camada_1" xmlns="http://www.w3.org/2000/svg" xmlns:xlink="http://www.w3.org/1999/xlink" x="0px" y="0px"
	 viewBox="0 0 800 800" style="enable-background:new 0 0 800 800;" xml:space="preserve">
<style type="text/css">
	.st0{fill:#333333;}
	.st1{fill:#FFFFFF;}
</style>
<circle class="st0" cx="400" cy="400" r="354"/>
<path class="st1" d="M400,558.3c-6.6-0.1-12.9-2.7-17.6-7.4c-4.7-4.7-7.3-11-7.4-17.6V366.7c0-6.6,2.6-13,7.3-17.7
	c4.7-4.7,11-7.3,17.7-7.3c6.6,0,13,2.6,17.7,7.3c4.7,4.7,7.3,11,7.3,17.7v166.7c-0.1,6.6-2.7,12.9-7.4,17.6
	C412.9,555.6,406.6,558.2,400,558.3z"/>
<path class="st1" d="M400,308.3c-6.6-0.1-12.9-2.7-17.6-7.4c-4.7-4.7-7.3-11-7.4-17.6v-16.7c0-6.6,2.6-13,7.3-17.7
	c4.7-4.7,11-7.3,17.7-7.3c6.6,0,13,2.6,17.7,7.3c4.7,4.7,7.3,11,7.3,17.7v16.7c-0.1,6.6-2.7,12.9-7.4,17.6
	C412.9,305.6,406.6,308.2,400,308.3z"/>
<path class="st1" d="M400,700c-59.3,0-117.3-17.6-166.7-50.6c-49.3-33-87.8-79.8-110.5-134.6c-22.7-54.8-28.6-115.1-17.1-173.3
	c11.6-58.2,40.1-111.6,82.1-153.6c42-42,95.4-70.5,153.6-82.1c58.2-11.6,118.5-5.6,173.3,17.1c54.8,22.7,101.7,61.2,134.6,110.5
	c33,49.3,50.6,107.3,50.6,166.7c0,79.6-31.6,155.9-87.9,212.1C555.9,668.4,479.6,700,400,700z M400,150
	c-49.4,0-97.8,14.7-138.9,42.1S188,258.6,169,304.3c-18.9,45.7-23.9,95.9-14.2,144.4c9.6,48.5,33.5,93,68.4,128
	c35,35,79.5,58.8,128,68.4c48.5,9.6,98.8,4.7,144.4-14.2c45.7-18.9,84.7-51,112.2-92.1C635.3,497.8,650,449.4,650,400
	c0-66.3-26.3-129.9-73.2-176.8C529.9,176.3,466.3,150,400,150z"/>
</svg>
