<?xml version="1.0" encoding="utf-8"?>
<!-- Generator: Adobe Illustrator 27.3.1, SVG Export Plug-In . SVG Version: 6.00 Build 0)  -->
<svg version="1.1" id="Camada_1" xmlns="http://www.w3.org/2000/svg" xmlns:xlink="http://www.w3.org/1999/xlink" x="0px" y="0px"
	 viewBox="0 0 20.5 43.1" style="enable-background:new 0 0 20.5 43.1;" xml:space="preserve">
<style type="text/css">
	.st0{fill:#FFFFFF;}
</style>
<path class="st0" d="M9,0.7c0.5-0.9,1.8-0.9,2.4,0L15.6,8l4.2,7.3c0.5,0.9-0.1,2.1-1.2,2.1H1.8c-1.1,0-1.7-1.1-1.2-2.1L4.8,8L9,0.7z
	"/>
<path class="st0" d="M11.4,42.4c-0.5,0.9-1.8,0.9-2.4,0l-4.2-7.3l-4.2-7.3c-0.5-0.9,0.1-2.1,1.2-2.1h16.8c1.1,0,1.7,1.1,1.2,2.1
	l-4.2,7.3L11.4,42.4L11.4,42.4z"/>
</svg>
