<?xml version="1.0" encoding="UTF-8"?><svg id="Modo_de_isolamento" xmlns="http://www.w3.org/2000/svg" viewBox="0 0 163.28 114.3"><defs><style>.cls-1{fill:#fff;}</style></defs><path class="cls-1" d="m159.87,17.85c-1.88-7.03-7.41-12.55-14.44-14.44-12.73-3.41-63.79-3.41-63.79-3.41,0,0-51.06,0-63.79,3.41-7.03,1.88-12.55,7.41-14.44,14.44C0,30.58,0,57.15,0,57.15c0,0,0,26.57,3.41,39.3,1.88,7.03,7.41,12.55,14.44,14.43,12.73,3.41,63.79,3.41,63.79,3.41,0,0,51.06,0,63.79-3.41,7.03-1.88,12.55-7.41,14.44-14.43,3.41-12.73,3.41-39.3,3.41-39.3,0,0-.01-26.57-3.41-39.3Zm-94.57,63.79v-48.98l42.42,24.49-42.42,24.49Z"/></svg>